<?xml version="1.0" standalone="no"?>
<!DOCTYPE svg PUBLIC "-//W3C//DTD SVG 20010904//EN"
 "http://www.w3.org/TR/2001/REC-SVG-20010904/DTD/svg10.dtd">
<svg version="1.0" xmlns="http://www.w3.org/2000/svg"
 width="600.000000pt" height="601.000000pt" viewBox="0 0 600.000000 601.000000"
 preserveAspectRatio="xMidYMid meet">
<g transform="translate(0.000000,601.000000) scale(0.050000,-0.050000)"
fill="#ffffff" stroke="none">
<path d="M195 11784 c-515 -1551 98 -2966 1520 -3514 171 -66 171 -72 2 -72
-415 0 -893 215 -1273 572 -178 167 -181 163 -77 -83 478 -1130 1770 -1734
2963 -1384 283 83 309 101 420 292 376 648 1038 1116 1763 1245 l143 26 100
202 c887 1780 -911 3344 -3076 2675 l-170 -52 220 -14 c480 -32 818 -114 1118
-273 258 -137 548 -414 624 -597 l32 -76 -87 76 c-435 375 -938 524 -1557 461
-273 -28 -340 -39 -740 -120 -893 -182 -1449 24 -1756 650 l-98 200 -71 -214z"/>
<path d="M9720 10053 c0 -146 -256 -556 -441 -705 -381 -308 -766 -380 -1559
-290 -1209 137 -2026 -255 -2519 -1208 -78 -151 -82 -156 -72 -77 18 140 128
450 210 592 43 74 73 135 67 135 -25 0 -397 -184 -512 -253 -966 -580 -1594
-1674 -1594 -2777 0 -104 -4 -190 -10 -190 -5 0 -65 43 -132 95 -650 503
-1118 775 -1606 935 -290 95 -302 94 -242 -15 52 -95 166 -372 191 -465 9 -33
34 -121 56 -195 48 -161 120 -508 194 -935 118 -684 437 -1371 795 -1715 185
-178 324 -239 594 -262 144 -13 150 -15 147 -63 -1 -27 -14 -174 -28 -326 -83
-902 258 -1568 1037 -2024 139 -81 161 -80 127 4 -37 96 -85 369 -96 546 l-10
170 46 -60 c328 -431 869 -753 1497 -891 351 -77 1285 -67 1426 15 9 5 -104
50 -250 98 -649 217 -1341 668 -1680 1096 -81 102 -88 147 -11 78 157 -142
653 -406 925 -493 783 -249 1542 -242 2332 20 l274 91 106 -83 c298 -236 798
-328 1259 -231 197 42 196 38 32 169 -156 124 -344 356 -443 546 l-60 116 70
52 c544 408 783 906 627 1300 l-41 102 170 138 c442 355 584 624 813 1537 186
742 257 952 452 1328 l118 227 -145 -14 c-693 -68 -1425 -411 -1729 -810 -99
-130 -112 -127 -165 44 -54 175 -217 511 -308 636 -64 88 -70 91 -224 117
-314 52 -637 184 -956 390 -260 168 -509 436 -280 302 127 -74 302 -160 430
-211 97 -38 146 -55 348 -118 335 -105 983 -129 1280 -47 961 264 1554 1048
1729 2286 28 199 45 685 23 677 -9 -4 -73 -77 -141 -163 -650 -810 -1594
-1147 -2451 -873 -251 80 -246 76 -171 121 395 240 638 767 578 1253 -25 209
-77 395 -77 278z m-682 -4962 c306 -158 601 -1396 416 -1747 -118 -224 -283
-345 -526 -387 -455 -78 -577 227 -456 1143 96 725 320 1118 566 991z m-3115
-156 c371 -172 699 -815 799 -1565 34 -251 19 -307 -108 -422 -575 -519 -1624
-162 -1931 657 -265 709 593 1630 1240 1330z m5261 -120 c20 -377 -135 -912
-290 -995 -70 -38 -72 -35 -157 230 l-64 200 -24 -90 c-50 -192 -144 -340
-215 -340 -111 0 -316 804 -228 893 53 53 200 -130 226 -283 l14 -80 36 105
c100 293 222 333 332 109 l54 -110 35 105 c89 260 271 427 281 256z m-8491
-284 l75 -230 52 160 c89 272 210 336 295 154 126 -268 210 -757 142 -825 -44
-44 -163 120 -247 340 -12 33 -19 24 -39 -50 -89 -330 -286 -346 -374 -30
l-22 80 -35 -125 c-54 -196 -223 -428 -275 -377 -37 37 -29 448 11 608 70 276
219 524 314 524 17 0 56 -87 103 -229z m4164 -2698 c137 -311 883 -373 1408
-116 162 78 171 64 42 -61 -317 -305 -854 -408 -1271 -244 -223 87 -516 338
-516 442 0 53 140 267 212 324 l58 46 14 -152 c8 -84 31 -191 53 -239z"/>
</g>
</svg>
